<?xml version="1.0" encoding="UTF-8" standalone="no"?>
<svg
   version="1.1"
   style="display:block"
   viewBox="0 0 2048 546.13283"
   width="1920"
   height="512"
   preserveAspectRatio="none"
   id="svg5"
   sodipodi:docname="logo_anett_bakes.svg"
   inkscape:version="1.4.2 (f4327f4, 2025-05-13)"
   inkscape:export-filename="logo_anett_bakes_white.png"
   inkscape:export-xdpi="96"
   inkscape:export-ydpi="96"
   xmlns:inkscape="http://www.inkscape.org/namespaces/inkscape"
   xmlns:sodipodi="http://sodipodi.sourceforge.net/DTD/sodipodi-0.dtd"
   xmlns="http://www.w3.org/2000/svg"
   xmlns:svg="http://www.w3.org/2000/svg">
  <defs
     id="defs5">
    <filter
       inkscape:label="Metallized Paint"
       inkscape:menu="Materials"
       inkscape:menu-tooltip="Metallized effect with a soft lighting, slightly translucent at the edges"
       style="color-interpolation-filters:sRGB;"
       id="filter6"
       x="-0.014273766"
       y="-0.064444207"
       width="1.0285475"
       height="1.1288884">
      <feGaussianBlur
         stdDeviation="1"
         result="result1"
         id="feGaussianBlur1" />
      <feComposite
         in="result1"
         in2="result1"
         result="result4"
         operator="in"
         id="feComposite1" />
      <feBlend
         in="result1"
         mode="screen"
         result="result5"
         in2="result4"
         id="feBlend1" />
      <feGaussianBlur
         stdDeviation="8"
         result="result6"
         in="result5"
         id="feGaussianBlur2" />
      <feComposite
         operator="atop"
         in="result6"
         in2="result5"
         result="result8"
         id="feComposite2" />
      <feComposite
         operator="in"
         result="fbSourceGraphic"
         in="result6"
         in2="result8"
         id="feComposite3" />
      <feGaussianBlur
         result="result0"
         in="fbSourceGraphic"
         stdDeviation="2.5"
         id="feGaussianBlur3" />
      <feSpecularLighting
         specularExponent="45"
         specularConstant="1.5"
         surfaceScale="1"
         lighting-color="rgb(255,255,255)"
         result="result1"
         in="result0"
         id="feSpecularLighting3">
        <fePointLight
           z="21000"
           y="-9000"
           x="-6000"
           id="fePointLight3" />
      </feSpecularLighting>
      <feComposite
         operator="in"
         result="result2"
         in="result1"
         in2="fbSourceGraphic"
         id="feComposite4" />
      <feComposite
         k3="1"
         k2="1"
         operator="arithmetic"
         result="result4"
         in="fbSourceGraphic"
         in2="result2"
         id="feComposite5" />
      <feComposite
         operator="in"
         in="result9"
         in2="result4"
         result="result91"
         id="feComposite6" />
      <feBlend
         mode="multiply"
         in2="result91"
         id="feBlend6" />
    </filter>
  </defs>
  <sodipodi:namedview
     id="namedview5"
     pagecolor="#ffffff"
     bordercolor="#000000"
     borderopacity="0.25"
     inkscape:showpageshadow="false"
     inkscape:pageopacity="0.0"
     inkscape:pagecheckerboard="true"
     inkscape:deskcolor="#d1d1d1"
     inkscape:zoom="0.41726666"
     inkscape:cx="955.02478"
     inkscape:cy="330.72376"
     inkscape:window-width="2063"
     inkscape:window-height="1304"
     inkscape:window-x="2402"
     inkscape:window-y="10"
     inkscape:window-maximized="0"
     inkscape:current-layer="svg5" />
  <g
     id="g5"
     transform="translate(21.557862,-239.06086)"
     style="fill:#800000"
     inkscape:label="logo_anett_bakes">
    <path
       fill="rgb(254,254,254)"
       d="m 1587.69,314.411 c 10.97,0.374 15.63,4.848 13.26,16.043 -5.36,25.333 -10.05,51.129 -15.63,76.387 -6.3,28.505 -9.9,59.184 -17.81,87.108 15.68,-28.338 50.49,-95.325 95.96,-73.783 20.53,9.728 16.28,42.009 5.13,58.8 -17.75,26.717 -43.23,41.176 -74.33,48.325 15.17,21.989 33.49,54.126 58.94,62.368 17.4,-5.866 30.81,-24.786 36.58,-42.063 1.21,-8.005 -0.13,-17.474 0.87,-25.406 5.5,-44.024 34.8,-97.648 83.61,-102.636 55.04,-5.625 63.8,50.33 32.61,84.08 -19.8,21.418 -46.13,36.632 -75.45,38.687 2.5,39.79 35.1,58.965 70.2,38.765 31.93,-18.372 55.48,-66.033 65.02,-100.649 -2.16,-7.804 -4.03,-14.106 -3.99,-22.337 0.09,-12.335 5.18,-24.107 14.11,-32.62 20.2,-19.543 63.33,-23.892 83.38,-2.229 6.37,7.011 9.63,16.307 9.03,25.763 -0.77,12.213 -12.1,25.097 -26.61,17.494 -4.03,-2.114 -0.02,-15.096 0.76,-20.247 3.14,-20.603 -23.67,-21.145 -34.35,-10.633 -21.06,21.725 9.15,48.08 23.65,63.931 18.24,19.941 29.65,35.793 29.5,63.701 0.3159,18.135 -4.4306,63.75328 -82.88,54.36 -16.47,-3.979 -28.77,-11.527 -35.7,-27.89 -9.27,-21.878 21.1,-42.646 39.75,-32.67 2.23,4.419 -36.92,33.151 2.74,39.033 25.31,3.753 39.31,-19.69 31.63,-42.518 -7.89,-23.428 -26.33,-39.741 -40.51,-60.212 -1.16,3.871 -2.41,7.711 -3.77,11.518 -14.29,39.488 -34.37,84.113 -74.82,102.274 -38.48,17.282 -82.61,8.7 -101.22,-31.799 -9.82,16.037 -22.18,31.948 -40.38,38.651 -49.33,18.165 -78.67,-42.715 -92.44,-78.223 -0.48,9.085 -3.3,18.98 -4.35,28.123 -0.59,2.535 -0.59,5.742 -1.19,8.202 -2.41,9.892 -0.2,32.429 -7.45,39.352 -7.94,7.587 -24.52,2.618 -30.66,-5.233 -6.39,-8.181 -6,-14.618 -5.13,-24.222 -9.52,16.629 -25.72,31.989 -45.69,33.676 -10.07,0.909 -20.07,-2.36 -27.65,-9.04 -12.05,-10.601 -14.69,-24.386 -15.51,-39.415 -44.55,90.857 -123.91,41.402 -106.82,-43.055 7.19,-35.494 19.3,-70.858 50.13,-93.206 25.89,-18.767 56.16,-17.003 75.52,9.954 3.07,-20.294 23.5,-24.125 40.24,-14.135 2.03,1.214 2.93,5.687 2.48,8.119 -7.07,40.056 -18.51,82.451 -20.62,123.089 -4.09,62.767 42.06,12.294 48.09,-14.257 13.53,-59.521 19.63,-121.273 33.24,-180.948 6.49,-28.445 5.24,-45.439 38.53,-48.377 z m -175.5,127.692 c -52.54,23.755 -65.44,162.886 -25.37,144.279 35.5,-25.942 41.39,-79.707 50.63,-119.298 3.65,-15.691 -10.59,-25.799 -25.26,-24.981 z m 318.97,83.171 c 4.17,-1.407 11.03,-3.937 15.07,-5.017 30.34,-11.858 56.72,-34.807 52.72,-70.466 -6.5,-7.75 -8.52,-9.337 -18.74,-8.705 -29.96,12.322 -42.77,55.368 -49.05,84.188 z M 1579.4,513.958 c 26.2,-11.917 49.98,-24.349 61.55,-52.47 2.8,-6.807 5.92,-18.4 -3.51,-21.219 -0.58,-0.173 -1.17,-0.333 -1.76,-0.479 -21.35,10.571 -49.67,54.319 -61.61,75.221 l 0.44,0.894 c 1.6,-0.657 3.27,-1.382 4.89,-1.947 z"
       id="path1"
       style="fill:#800000"
       sodipodi:nodetypes="ccccccccccscccccccccccccccccccccccccccccccccsccccccccccccccccccccccc" />
    <path
       fill="rgb(254,254,254)"
       d="m 899.033,349.528 c 0.667,0.065 1.333,0.142 1.997,0.228 4.102,0.526 5.318,0.987 7.656,4.011 1.413,8.548 -6.756,39.133 -9.229,49.366 10.541,-0.987 46.21,-4.538 53.478,2.072 1.499,1.341 2.365,3.251 2.386,5.262 0.305,17.257 -46.825,13.308 -58.942,13.483 -1.645,6.257 -3.124,13.972 -4.167,20.427 -5.668,35.086 -14.188,70.847 -16.054,106.36 -0.642,8.004 1.556,30.267 9.267,34.049 28.358,12.973 50.585,-33.397 60.115,-52.741 12.963,-26.313 29.448,-13.304 15.941,13.592 -15.312,30.489 -35.119,61.848 -71.495,68.955 -12.63,2.468 -26.204,-1.015 -36.02,-8.531 -9.691,-7.386 -15.972,-18.385 -17.41,-30.484 -20.355,28.388 -58.804,55.325 -93.843,28.572 -10.154,-7.753 -15.378,-24.657 -15.891,-37.266 -33.408,50.341 -117.55,73.37 -149.032,11.066 -6.597,11.116 -15.618,20.598 -26.391,27.739 -11.616,7.557 -27.489,12.722 -41.085,9.353 -60.461,-14.984 3.056,-145.023 -10.781,-166.843 -6.786,-3.85 -16.36,4.723 -20.791,9.749 -33.483,37.974 -45.801,91.507 -54.397,140.11 -2.26,12.775 -11.267,15.592 -23.04,14.646 -21.936,-0.506 -18.126,-21.215 -16.884,-37.283 0.991,-12.818 3.273,-27.157 4.922,-40.465 2.587,-18.91 4.999,-37.843 7.237,-56.797 1.524,-12.942 1.181,-39.43 12.529,-47.258 5.662,-3.906 29.447,-12.577 32.774,-2.584 5.382,16.167 -2.806,47.308 -6.754,64.268 6.184,-13.889 11.484,-24.996 20.178,-38.162 13.928,-21.094 48.653,-46.685 73.469,-28.37 23.856,17.606 10.712,59.571 6.701,83.485 -3.637,21.683 -12.249,46.481 -10.3,68.886 0.518,6.138 7.295,12.679 12.785,10.489 14.15,-5.646 24.628,-23.585 31.799,-35.5 -5.571,-52.843 16.621,-115.316 72.943,-131.416 13.009,-3.718 30.286,-2.169 41.783,4.997 8.74,5.381 14.853,14.151 16.877,24.214 2.909,13.901 -2.112,33.171 -10.278,44.733 -20.14,28.513 -48.51,40.832 -81.235,47.52 14.929,78.769 90.895,42.917 114.27,-6.696 4.576,-9.712 7.14,-34.513 9.05,-46.116 3.522,-21.995 7.359,-43.939 11.509,-65.824 -0.507,0.099 -1.016,0.189 -1.526,0.271 -6.751,1.135 -25.064,3.203 -30.753,-1.126 -1.553,-1.176 -2.506,-2.979 -2.602,-4.924 -0.746,-15.274 28.65,-12.921 38.768,-13.206 1.845,-13.795 5.23,-39.153 16.149,-48.144 6.594,-5.43 29.563,-10.804 35.765,-2.83 1.591,9.593 -6.297,38.035 -8.903,49.177 25.484,-1.513 41.711,2.143 65.092,0.816 0.735,-9.1 7.108,-36.961 10.295,-45.251 9.858,-8.534 19.686,-9.209 32.068,-10.079 z m -89.662,227.628 c 28.721,-29.447 24.417,-42.905 30.745,-81.265 3.54,-21.462 8.042,-49.927 12.756,-71.103 -25.148,3.982 -29.547,-3.137 -50.197,-1.346 -4.528,0.16 -9.931,0.496 -14.386,0.439 -5.933,30.998 -30.457,133.795 -14.012,158.213 2.208,3.278 5.167,5.745 9.158,6.454 7.922,1.406 18.148,-5.3 24.186,-9.903 0.619,-0.472 1.187,-0.952 1.75,-1.489 z M 609.752,524.695 c 7.066,-1.708 11.011,-3.088 17.826,-5.671 23.841,-10.261 41.453,-25.312 48.51,-51.182 4.635,-16.994 -1.774,-27.174 -20.017,-25.763 -29.492,12.008 -40.704,54.302 -46.319,82.616 z"
       id="path2"
       style="fill:#800000"
       sodipodi:nodetypes="cccccccccccccccscccccccccccccccccccccccccccccccccccccccccccccscccccc" />
    <path
       fill="rgb(254,254,254)"
       d="m 336.955,299.364 c 2.403,-0.356 4.661,-0.065 7.023,0.363 33.508,5.91 30.385,52.338 26.445,77.456 -6.178,39.388 -13.846,78.743 -20.718,118.057 6.449,1.335 20.519,2.743 25.496,6.05 0.723,1.303 0.959,1.734 0.942,3.286 -0.161,15.338 -19.624,12.008 -29.736,11.207 -7.165,34.079 -10.712,77.477 7.246,108.764 61.425,107.016 300.5,-3.633 396.807,22.365 15.678,4.232 31.615,13.03 39.775,27.583 5.125,9.14 6.599,20.53 3.527,30.596 -2.421,7.929 -7.955,15.263 -15.438,19.031 -4.101,2.066 -8.756,2.915 -13.166,1.299 -4.047,-1.483 -7.138,-4.411 -8.874,-8.329 0.49,-10.694 19.899,-14.168 17.861,-24.298 -6.191,-30.769 -40.097,-26.721 -63.045,-27.076 -74.365,-1.152 -147.199,22.019 -220.689,27.866 -32.719,3.695 -68.639,-0.258 -98.702,-11.012 -64.781,-23.173 -97.902,-84.63 -89.079,-151.537 1.085,-8.229 1.313,-16.786 4.271,-24.805 -19.625,-8.162 -41.895,-16.572 -61.851,-23.918 -24.9,57.208 -68.635,174.552 -149.7573,149.609 -21.3336,-6.746 -39.1406,-21.643 -49.5474,-41.45 -25.5844,-48.647 0.0238,-107.027 47.1271,-130.855 45.4426,-22.989 92.6886,-18.317 139.5816,-3.592 16.696,-38.144 33.286,-78.47 53.875,-114.667 11.213,-19.713 26.723,-38.933 50.626,-41.993 z M 128.256,611.432 c 48.048,-18.813 73.397,-94.039 97.206,-136.617 -26.792,-6.747 -43.16,-11.715 -71.229,-10.396 -30.021,2.255 -51.84,9.799 -74.3278,33.681 -35.7545,37.971 -22.7297,115.064 37.4868,115.64 2.071,0.02 8.643,-1.524 10.864,-2.308 z M 253.999,463.265 c 4.752,1.783 13.726,4.852 18.007,6.882 12.559,4.656 25.333,9.859 37.788,14.371 0.997,-12.651 4.287,-28.03 6.654,-40.722 l 11.301,-59.681 c 2.341,-11.968 11.299,-52.521 4.025,-61.065 l -1.285,-0.386 c -28.343,20.338 -59.251,108.748 -76.49,140.601 z"
       id="path3"
       style="fill:#800000"
       sodipodi:nodetypes="cccccccccsccsccccsccccccccccccccccccccccc" />
    <path
       fill="rgb(254,254,254)"
       d="m 1195.67,298.455 c 27.34,-2.811 66.88,7.213 87.07,26.65 17.71,17.052 23.79,40.494 15.11,63.659 -11.68,31.138 -38.41,47.489 -67.1,60.803 26.27,1.594 55.7,16.613 67.05,41.484 8.66,19.161 8.78,42.956 1.19,62.556 -28.33,72.731 -129.18,103.541 -199.02,79.416 -36.05,-12.451 -59.95,-46.197 -38.74,-83.073 2.55,-4.429 12.86,-13.299 17.46,-15.101 5.72,-2.245 20.86,-4.803 22.56,4.236 0.14,0.191 -0.05,2.83 -0.18,2.917 -51.14,35.376 -9.45,85.978 66.25,73.813 41.65,-8.454 79.15,-37.063 91.27,-78.987 11.59,-40.096 -12.35,-71.724 -54.11,-72.659 -10.8,-0.242 -22.69,0.612 -33.21,-2.169 -0.94,-1.591 -2.09,-4.537 -1.32,-6.241 5.57,-12.392 28.72,-12.33 39.77,-18.3 15.21,-7.88 31.22,-20.217 39.33,-35.459 39.02,-73.32 -31.55,-95.355 -90.27,-77.334 -31.38,9.63 -54.88,21.107 -73.13,49.213 -8.17,12.578 -9.27,30.887 0.88,41.78 2.63,2.817 7.73,6.671 8.56,9.648 -2.68,4.511 -11.44,6.64 -16.46,8.159 -44.17,-8.13 -32.72,-58.936 -8.86,-82.94 34.45,-34.661 77.9,-50.14 125.9,-52.071 z"
       id="path4"
       style="fill:#800000"
       sodipodi:nodetypes="cccccccccccccsccccccccccc" />
    <path
       fill="rgb(254,254,254)"
       d="m 1176.63,341.323 c 4.23,0.221 7.53,0.626 10.64,3.545 1.12,2.463 1.46,2.166 1.06,4.44 -2.82,16.316 -6.69,32.843 -10.22,49.047 -5.44,24.594 -10.58,49.256 -15.41,73.977 -4.4,22.043 -8.54,44.135 -12.45,66.271 -2.13,12.201 -4.22,24.633 -6.46,36.812 -3.3,17.838 -8.27,20.336 -26.08,17.204 -2.15,-0.879 -4.43,-2.014 -6.32,-3.352 -4.31,-3.049 -7.11,-8.152 -8.02,-13.28 -3.38,-19.03 31.13,-204.968 42.52,-220.481 7.29,-9.917 19.3,-12.536 30.74,-14.183 z"
       id="path5"
       style="fill:#800000"
       sodipodi:nodetypes="cccccccccccc" />
  </g>
</svg>
