<?xml version="1.0" encoding="UTF-8" standalone="no"?>
<svg
   version="1.1"
   style="display:block"
   viewBox="0 0 1024 1024"
   width="512"
   height="512"
   preserveAspectRatio="none"
   id="svg33"
   sodipodi:docname="logo_anett.svg"
   inkscape:version="1.4.2 (f4327f4, 2025-05-13)"
   inkscape:export-filename="logo_anett_white.png"
   inkscape:export-xdpi="96"
   inkscape:export-ydpi="96"
   xmlns:inkscape="http://www.inkscape.org/namespaces/inkscape"
   xmlns:sodipodi="http://sodipodi.sourceforge.net/DTD/sodipodi-0.dtd"
   xmlns="http://www.w3.org/2000/svg"
   xmlns:svg="http://www.w3.org/2000/svg">
  <defs
     id="defs33">
    <filter
       inkscape:label="Metallized Paint"
       inkscape:menu="Materials"
       inkscape:menu-tooltip="Metallized effect with a soft lighting, slightly translucent at the edges"
       style="color-interpolation-filters:sRGB;"
       id="filter23"
       x="-0.029233865"
       y="-0.032548367"
       width="1.0584677"
       height="1.0650967">
      <feGaussianBlur
         stdDeviation="1"
         result="result1"
         id="feGaussianBlur18" />
      <feComposite
         in="result1"
         in2="result1"
         result="result4"
         operator="in"
         id="feComposite18" />
      <feBlend
         in="result1"
         mode="screen"
         result="result5"
         in2="result4"
         id="feBlend18" />
      <feGaussianBlur
         stdDeviation="8"
         result="result6"
         in="result5"
         id="feGaussianBlur19" />
      <feComposite
         operator="atop"
         in="result6"
         in2="result5"
         result="result8"
         id="feComposite19" />
      <feComposite
         operator="in"
         result="fbSourceGraphic"
         in="result6"
         in2="result8"
         id="feComposite20" />
      <feGaussianBlur
         result="result0"
         in="fbSourceGraphic"
         stdDeviation="2.5"
         id="feGaussianBlur20" />
      <feSpecularLighting
         specularExponent="45"
         specularConstant="1.5"
         surfaceScale="1"
         lighting-color="rgb(255,255,255)"
         result="result1"
         in="result0"
         id="feSpecularLighting20">
        <fePointLight
           z="21000"
           y="-9000"
           x="-6000"
           id="fePointLight20" />
      </feSpecularLighting>
      <feComposite
         operator="in"
         result="result2"
         in="result1"
         in2="fbSourceGraphic"
         id="feComposite21" />
      <feComposite
         k3="1"
         k2="1"
         operator="arithmetic"
         result="result4"
         in="fbSourceGraphic"
         in2="result2"
         id="feComposite22" />
      <feComposite
         operator="in"
         in="result9"
         in2="result4"
         result="result91"
         id="feComposite23" />
      <feBlend
         mode="multiply"
         in2="result91"
         id="feBlend23" />
    </filter>
  </defs>
  <sodipodi:namedview
     id="namedview33"
     pagecolor="#ffffff"
     bordercolor="#000000"
     borderopacity="0.25"
     inkscape:showpageshadow="false"
     inkscape:pageopacity="0.0"
     inkscape:pagecheckerboard="true"
     inkscape:deskcolor="#d1d1d1"
     inkscape:zoom="1.1064453"
     inkscape:cx="-29.825242"
     inkscape:cy="241.76522"
     inkscape:window-width="2400"
     inkscape:window-height="1261"
     inkscape:window-x="-9"
     inkscape:window-y="-9"
     inkscape:window-maximized="1"
     inkscape:current-layer="svg33" />
  <g
     id="g33"
     inkscape:label="logo_anett"
     transform="translate(-6.3998828,-0.98960809)"
     style="fill:#800000">
    <path
       fill="#000000"
       d="m 572.81357,735.43874 c 5.6,3.39 10.33,8.06 13.79,13.62 7.33,11.92 5.4,23.75 2.34,36.4 2.72,-3.78 5.37,-6.48 8.52,-9.88 6.73,-2.4 30.45,-7.52 35.81,-1.94 0.08,4.15 -0.55,3.67 -3.03,7.92 -39.21,41.05 -75.64,-6.1 -57.43,-46.12 z"
       id="path21"
       style="display:block;fill:#800000"
       inkscape:label="leaf 4" />
    <path
       fill="#000000"
       d="m 590.98357,700.31874 c 4.44,2.12 14.31,15.04 16.4,20.69 5.27,14.22 3.52,20.42 -1.44,33.28 3.03,-3.49 9.7,-12.02 13.75,-13.14 7.22,-2 26.11004,-3.84 32.50004,-0.6 0.13,3.02 -1.62,4.62 -3.48,7.77 -6.35,7.71 -10.11,10.25 -18.28004,15.46 -9.9,0.57 -18.69,1.29 -28.54,-0.11 -15.7,-22.99 -20.51,-36.63 -10.91,-63.35 z"
       id="path19"
       style="display:block;fill:#800000"
       inkscape:label="leaf 3" />
    <path
       fill="#000000"
       d="m 608.44357,668.42874 c 2.96,1.11 10,10.27 11.48,13.09 8.06,15.38 7.64,24.85 3.43,40.36 13.38,-16.64 28.93004,-15.34 48.48004,-14 l -5.13,7.64 c -9.29,12.19 -27.9,20.88 -43.68004,18.28 -4.19,-0.69 -9.55,-11.71 -11.96,-15.6 -11.17,-17.99 -7.93,-30.69 -2.62,-49.77 z"
       id="path20"
       style="display:block;fill:#800000"
       inkscape:label="leaf 2" />
    <path
       fill="#000000"
       d="m 659.45361,653.97874 c 0.69,0.78 1.54,2.19 1.76,3.19 4.54,20.91 -8.29,39.74 -27.25004,46.95 -7.15,-9.87 1.4,-28.16 8.13004,-36.32 5.61,-6.81 10,-9.44 17.36,-13.82 z"
       id="path28"
       style="display:block;fill:#800000"
       inkscape:label="leaf 1" />
    <path
       fill="#000000"
       d="m 865.93361,564.36874 c 13.19,4.21 9.54,11.63 7.48,22.58 -43.07,229.41 -292.80004,372 -508.41704,269.99 -104.626,-49.5 -182.416,-143.88 -206.998,-257.82 -1.414,-6.55 -4.688,-21.06 -3.123,-27.37 2.88,-1.4 5.666,-3.22 8.731,-3.12 2.504,9.82 4.016,20.55 6.224,30.57 19.399,88.11 74.274,166.48 148.119,217.71 21.478,14.9 41.209,25.17 65.012,36.04 31.794,13.35 71.184,22.16 105.712,24.56 -11.995,-9.25 -29.413,-18.17 -43.263,-26.64 -49.88,-30.5 -115.713,-86.28 -79.183,-150.91 18.243,-32.28 63.041,-36.25 92.898,-15.88 58.638,40.01 54.068,119.53 66.818,181.08 10.52,-10.26 26.08,-31.44 34.44,-43.54 -16.82,-18.66 -13.59,-32.96 -6.77,-55.1 15.88,14.95 22.38,24.39 17.42,47 18.21,-13.49 23.6,-11.32 45.7,-9.99 -12.05,22.94 -25.6,26.01 -49.4,23.48 -4.53,5.53 -32.51,43.03 -34.46,47.38 5.49,5.56 26.48,1.3 34.16,0.06 50.75,-8.31 99.07004,-27.55 141.64004,-56.41 68.32,-46.54 118.83,-114.88 143.27,-193.85 6.13,-19.46 10.09,-39.83 13.99,-59.82 z m -373.10004,294.1 c 0.05,-4.16 -8.6,-17.13 -11.204,-21.16 -30.551,-47.31 -60.706,-95.14 -94.708,-140.06 -0.565,-0.75 -1.369,-1.35 -1.712,-1.62 -14.033,63.72 64.555,125.95 107.624,162.84 z m 8.87,-9.21 c -23.547,-62.84 -29.831,-141.08 -107.221,-160.69 31.946,48.77 65.901,96.22 96.621,145.83 2.58,4.17 7.43,11.34 10.6,14.86 z m 10.29,2.31 c -3.34,-62.42 -18.44,-178.26 -104.151,-170.29 39.928,17.17 60.175,44.46 76.291,84.84 6.45,16.58 12.26,33.41 17.41,50.45 1.97,6.39 7.9,31.27 10.45,35 z m -31.038,10.21 3.598,1.77 c -0.47,-1.68 -12.656,-10.76 -14.994,-12.9 -36.552,-33.37 -77.673,-68.29 -92.595,-117.3 -2.978,-9.78 -0.246,-23.43 -1.88,-29.63 -15.684,29.24 -11.568,52.87 6.725,79.92 24.814,36.7 63.861,54.25 99.146,78.14 z"
       id="path7"
       style="display:inline;fill:#800000"
       inkscape:label="circle small bot" />
    <path
       fill="#000000"
       d="m 888.39361,578.64874 c 7.76,1.16 14.11,3.11 21.67,5.26 -7.54,47.54 -23.48,93.36 -47.06,135.32 -106.03,190.92 -347.31004,266.28999 -539.43904,157.85 -97.311,-53.72 -168.708,-144.57 -197.901,-251.82 -3.209,-11.14 -4.659,-18.13 -5.409,-29.64 6.898,-3.05 13.759,-6.2 20.582,-9.42 7.07,44.5 30.953,101.01 54.989,138.81 55.928,88.47 141.069,148.29 243.243,170.72 179.295,39.36 363.62504,-68.13 427.03504,-238.45 9.94,-26.69 16.1,-50.93 22.29,-78.63 z"
       id="path9"
       style="display:inline;fill:#800000"
       inkscape:label="circle bot" />
    <path
       fill="rgb(254,254,254)"
       d="m 473.69364,129.44391 c 4.67265,-0.67407 9.41239,-0.59052 14.07442,-0.86759 50.47375,-2.99929 99.5914,0.0509 147.16826,18.06522 44.9144,17.00618 87.99624,36.25656 122.86164,70.51925 3.50272,3.45001 7.65229,5.79609 7.83537,10.97233 l -2.18371,1.41036 c -3.26141,0.25563 -9.61548,-0.28661 -11.97349,-2.43999 -34.19776,-31.25672 -68.82271,-50.36806 -112.69224,-66.89071 -4.56484,-2.44392 -21.8344,-7.33512 -27.52773,-8.90086 -69.34298,-19.04125 -150.4859,-14.11043 -218.15386,9.63158 -7.8667,2.45022 -16.03283,7.10971 -23.53373,9.83339 -11.71415,4.25433 -39.68603,26.06583 -50.20706,17.3564 -0.0114,-2.05589 0.6128,-5.15709 2.40062,-6.16663 43.53028,-24.59888 103.56877,-47.50919 151.93151,-52.52275 z"
       id="path13"
       style="display:block;fill:#800000"
       inkscape:label="circle small top" />
    <path
       fill="rgb(254,254,254)"
       d="m 516.04797,79.17954 c 29.25,-1.4059 84.59,5.911 112.72,14.0332 66.16004,19.331 128.64004,53.479 178.33004,101.492 4.79,4.622 24.18,22.374 22.43,27.876 -5.64,2.283 -16.86,3.407 -23.37,4.392 -10.99,-6.304 -16.3,-13.97 -25.53,-22.066 -53.19,-46.684 -116.71,-79.802 -186.39004,-93.306 -55.85,-10.823 -113.95092,-8.997 -168.96592,5.379 -13.819,3.612 -22.923,5.994 -34.648,14.133 -3.226,-0.115 -6.452,0.183 -9.602,0.887 -11.287,2.409 -43.105,17.753 -53.562,23.606 -53.755,30.385 -99.549,73.07 -133.633,124.559 -9.286,13.886 -16.685,28.542 -25.632,42.597 -9.146,0.324 -15.967,-0.117 -24.94,-1.51 9.326,-33.574 48.721,-85.056 72.357,-111.001 56.568,-62.096 140.989,-106.699 223.075,-122.902 26.408,-5.213 50.77092,-6.6585 77.36092,-8.1692 z"
       id="path10"
       style="fill:#800000"
       inkscape:label="circle top" />
    <path
       fill="#000000"
       d="m 873.76245,331.30609 c 2.13211,-12.23207 3.87823,-33.57156 10.60541,-43.4969 4.61345,-6.81908 31.65086,-14.17119 38.20342,-7.97704 2.21482,8.99714 -4.92591,39.23268 -7.03045,49.44292 12.90295,-1.14877 26.33892,-1.23148 39.33377,-1.40609 6.57095,-0.0919 15.18211,-0.53303 18.04031,6.46066 -0.4779,3.66687 -1.1488,7.3613 -3.8232,10.13672 -4.78803,4.98105 -47.54053,4.6594 -57.35559,5.10052 l -0.39518,1.51638 c -3.52901,13.77601 -5.29352,28.74673 -7.56348,42.80764 -4.65024,28.78349 -11.0282,60.05752 -9.8151,89.28214 0.30328,7.41644 1.37852,16.00921 5.37623,22.36879 2.20567,3.51063 5.05461,5.80816 9.18098,6.5158 4.54911,0.79035 10.67893,-0.29408 15.00749,-1.76451 31.36592,-10.7065 38.32285,-56.39984 51.14315,-62.63994 2.7938,-1.36014 5.8265,-0.86388 8.5468,0.31246 7.5175,9.17175 -6.9202,31.87138 -12.1126,40.55606 -12.59052,20.42047 -33.94839,42.32056 -58.16439,47.71517 -32.71691,7.29697 -52.72383,-7.27858 -59.59805,-39.06726 -14.77773,19.49228 -31.58649,37.3579 -57.04316,40.39983 -35.34525,4.22746 -50.44464,-14.48365 -53.61523,-46.99834 -10.8076,12.02988 -23.104,24.52846 -36.93515,32.84553 -40.17926,24.17006 -89.41084,21.07298 -115.05131,-21.20163 -11.52443,15.39347 -28.74674,33.05691 -48.95584,35.49229 -60.51611,7.27859 -44.0575,-59.88291 -36.93515,-95.48548 2.61,-12.61806 4.9351,-25.29125 6.97531,-38.01039 1.04768,-6.46067 3.37278,-18.04024 2.00345,-24.00463 -3.85986,-16.78119 -21.02519,-1.28662 -26.41428,4.36531 -14.70789,15.43942 -22.70882,35.17064 -31.11871,54.24017 -9.01644,23.66459 -16.21507,49.48887 -19.3195,74.64226 -0.44572,3.60253 -2.06135,13.81277 -4.46181,16.29411 -9.66343,9.9621 -38.15835,11.51523 -37.95525,-8.13327 0.21229,-8.70306 1.54762,-18.03104 2.42711,-26.65139 2.02735,-20.494 4.26882,-40.96042 6.72626,-61.39928 2.45469,-21.85414 4.02804,-43.405 7.26021,-65.20399 2.32878,-15.71513 35.27449,-22.50664 41.35284,-15.7427 4.79082,5.33946 -4.35796,52.60432 -6.3559,60.48026 l -0.46134,1.79208 c 13.58669,-27.23036 32.36397,-61.95069 65.19572,-67.76804 26.86276,-4.76049 41.08909,12.53534 41.43832,37.67954 0.48707,34.13216 -9.18095,65.45213 -14.19876,98.91341 -0.97415,6.5158 -3.48306,23.41646 3.92419,27.72663 18.11375,7.81161 34.98683,-19.53822 41.98972,-32.55145 -3.50145,-37.19247 4.26422,-69.68878 27.91043,-99.63943 19.69446,-24.95121 63.54062,-46.51126 92.10355,-22.92019 23.60946,19.50146 7.98623,58.13678 -9.27284,76.70085 -17.81967,19.17981 -44.46187,31.68758 -70.87435,32.82716 l -1.17633,0.0368 c 7.84837,47.45785 39.15919,60.53541 80.91916,36.73296 11.0833,-7.48077 33.83807,-28.27804 37.78983,-41.25451 10.03562,-32.92824 11.86446,-75.99321 18.94086,-109.76695 -9.2177,-0.58817 -30.79614,4.05285 -34.53652,-5.35784 1.79207,-12.63644 5.24757,-12.13098 17.0477,-12.83862 6.97531,-0.42275 13.84953,-0.34923 20.73294,-1.67261 0.90063,-4.78805 1.8564,-10.08157 2.65595,-14.86963 4.76048,-28.59051 4.34693,-34.38029 34.463,-38.91103 1.44285,-0.14704 2.8857,-0.24813 4.33774,-0.32165 3.50144,-0.14704 5.16485,0.0368 7.78404,2.38943 2.77542,7.38887 -5.29352,41.14423 -7.27858,51.01443 15.51294,-2.1413 51.16147,-0.22056 68.40216,0.26652 z m -3.31764,19.95178 c -14.64907,0.0827 -29.17867,-0.67088 -43.80937,-1.31419 -7.61862,-0.34004 -18.22403,0.47789 -25.35557,-0.35842 l -0.12867,1.19472 c -3.18897,29.45438 -28.76511,137.20869 -12.16773,156.90315 2.84894,3.38197 7.14992,4.54911 11.40495,4.81563 9.29123,0.57897 19.60256,-3.71282 26.37569,-9.98049 2.56404,-2.37105 5.00862,-4.89834 7.11316,-7.68295 21.52329,-29.39924 19.23495,-34.03106 24.1241,-69.40389 3.18898,-23.08561 6.9845,-51.75883 12.44344,-74.17356 z m -245.80853,94.84217 c 7.69214,-0.96496 11.9564,-1.59908 19.4096,-3.51063 11.5428,-4.68697 19.97016,-9.11661 28.78349,-17.96671 16.31249,-16.3952 38.92022,-57.45671 -3.05112,-55.81168 -29.9966,12.09422 -40.60205,48.28496 -45.14197,77.28902 z"
       id="path1"
       style="display:block;stroke-width:0.999997;fill:#800000"
       inkscape:label="text_nett" />
    <path
       fill="#000000"
       d="m 335.55106,224.49553 c 26.49338,-1.46831 35.96842,13.4532 37.17975,37.92769 1.48939,30.08143 -5.29593,61.23663 -10.11373,90.94189 l -9.8834,63.15462 c 7.96912,2.34014 21.07265,3.07429 26.66406,7.47913 0.99752,2.0648 1.05809,2.59701 0.84518,4.80862 -1.51141,15.7565 -20.94784,9.95685 -30.89731,7.76352 -6.62013,29.87969 -9.30526,66.90794 1.89684,95.89742 7.85808,20.33576 23.70088,35.12874 43.46493,43.81912 102.18717,44.93878 297.97388,-45.58105 379.66566,-8.4793 11.5077,5.23078 21.7398,14.06797 26.07123,26.23642 3.24862,9.14005 3.52387,20.51009 -0.78004,29.36575 -3.15675,6.50629 -8.30498,11.37004 -15.27931,13.52651 -4.43245,1.3674 -11.26912,1.89961 -15.28855,-0.96351 -1.7069,-1.21134 -2.59701,-2.89073 -2.5695,-4.99218 0.16519,-9.80994 9.59896,-7.99297 14.40758,-13.03105 2.98242,-3.11095 3.62479,-7.3506 3.51473,-11.52598 -0.1928,-6.81839 -2.61538,-12.36116 -7.75438,-16.91291 -32.40329,-28.66825 -140.55175,-3.49635 -181.49852,3.34955 -27.62218,4.62515 -55.27179,9.20431 -83.20598,11.47105 -23.39156,3.56976 -60.91819,3.59727 -84.07856,0.55973 -37.67713,-4.94629 -73.5134,-22.85936 -96.51041,-53.76673 -27.0495,-36.34932 -26.47136,-81.99465 -20.33485,-124.90528 -20.65877,-6.18515 -43.05196,-15.11412 -63.23171,-23.00618 -20.02375,44.23214 -47.92668,116.91221 -91.74675,141.25826 -17.83142,9.7274 -38.77376,12.0583 -58.306545,6.47877 C -6.6127199,520.52028 30.312832,312.83127 235.44886,379.18862 255.37074,339.70093 290.46002,234.13114 335.55106,224.49553 Z M 138.83749,530.93594 c 42.29581,-19.11528 70.82827,-92.92414 90.10778,-134.03619 -19.98062,-4.5884 -58.85807,-13.42559 -78.98,-10.79183 -26.54294,3.16598 -52.324199,11.21399 -69.649966,32.99968 -13.482538,16.72011 -19.737437,38.12953 -17.378999,59.48393 2.040002,17.20643 10.002691,34.77085 24.010144,45.471 11.072706,8.48853 25.108601,12.14084 38.914151,10.12194 4.4278,-0.624 8.7776,-1.71605 12.97689,-3.24853 z M 255.97365,385.64901 c 7.17992,2.27588 14.98661,4.55175 21.89031,7.43325 12.11886,4.6618 24.33408,9.06664 36.63739,13.22375 1.34716,-12.46208 4.34613,-26.94307 6.60087,-39.46018 l 10.01737,-55.37271 c 2.8962,-15.16925 6.16405,-30.64126 7.34878,-46.04911 0.50564,-6.57979 1.71972,-17.28907 -6.62013,-18.5922 -21.75357,12.40705 -64.44215,112.25964 -75.87459,138.8172 z"
       id="path3"
       style="display:block;stroke-width:1;fill:#800000"
       inkscape:label="text_A" />
  </g>
</svg>
