<svg id="Layer_1" height="512" viewBox="0 0 512 512" width="512" xmlns="http://www.w3.org/2000/svg" data-name="Layer 1"><path d="m42.9 203s28.18 3.8 37.38 27.45-14.77 30.67-14.77 30.67" fill="#fb0048"/><path d="m43.14 202.88s-18.21 21.85-9 45.5 31.61 12.62 31.61 12.62" fill="#fb0048"/><path d="m46.62 255.44s-23.48-1.23-16.68 16.26c8.49 21.81 78.68-5.5 68.67-29-5.25-12.34-21.5-4.29-22.8 3.11 0-.01-21.38-11.24-29.19 9.63z" fill="#f8f8f8"/><path d="m470.66 249.89s11.56 14.67 5.1 30-21 7.72-21 7.72" fill="#fb0048"/><path d="m470.82 250s-18.57 2-25 17.34 9.15 20.39 9.15 20.39" fill="#fb0048"/><path d="m448.46 276.34s-10.52-11.3-15.3.05c-6 14.16 39.62 33.33 45.64 17.67 3.15-8.21-8.18-11.84-12.18-8.94 0 0-4.95-15.06-18.16-8.78z" fill="#f8f8f8"/><path d="m427.52 151.19c-.54-1.93-3.22-2.52-5-1.59s-2.81 2.81-3.68 4.61c-2.05 4.23-3.79 8.75-3.84 13.45s1.89 9.64 5.85 12.16 10 1.78 12.46-2.23" fill="none" stroke="#6dc6c1" stroke-miterlimit="10" stroke-width="1.46"/><path d="m432.14 329.92c-.89 3.86-5.05 5.92-8.82 7.13a72.89 72.89 0 0 1 -25.44 3.41" fill="none" stroke="#d92f2e" stroke-miterlimit="10" stroke-width="1.46"/><path d="m496.08 204.63a30.82 30.82 0 0 1 -8 27.88 9.46 9.46 0 0 1 -4.76 3c-2.68.5-5.45-1.12-6.93-3.41a14.31 14.31 0 0 1 -1.91-7.85c0-3.34 1-7.27 4.13-8.44 2.57-1 5.38.4 7.76 1.78 5.53 3.22 11 6.82 14.89 11.91s5.94 11.95 3.93 18" fill="none" stroke="#69a7d9" stroke-miterlimit="10" stroke-width="1.46"/><circle cx="403.88" cy="74.29" fill="#fab131" r="6"/><path d="m80.84 129.47c.34.4-.56.87-.89.46s-.17-1 0-1.52a44.67 44.67 0 0 0 1.05-26.17c-1.44-5.45-4.29-11-9.37-13.4s-12.52 0-13.53 5.51c-.77 4.22 2.25 8.19 5.55 10.94a37.65 37.65 0 0 0 10.64 6.26c4.86 1.88 10.51 2.69 15.17.35 5.26-2.64 7.93-8.49 10.09-14" fill="none" stroke="#6dc6c1" stroke-miterlimit="10" stroke-width="1.46"/><path d="m63.28 291.72c2.52 8.32 0 17.52-4.64 24.85s-11.39 13.09-18.08 18.65" fill="none" stroke="#f8b02f" stroke-miterlimit="10" stroke-width="1.46"/><circle cx="12.74" cy="180.7" fill="#d92f2e" r="6.74"/><path d="m284.38 215.81c-3.49 9.2-11.06 21.68-13.54 31.35 17 11.28 30.15 17.48 42 19.74-7-12.41-8.11-28.28-13.13-41.53-4.36-2.68-9.41-5.86-15.33-9.56z" fill="#e89256"/><path d="m284.39 215.82c0 .1 0 .11 0 .09v-.08z" fill="#ef9e67"/><path d="m280.76 224.71-.17-.08c.09.07.14.09.17.08z" fill="#ef9e67"/><path d="m284.41 215.83s.01-.02 0 0z" fill="#ef9e67"/><path d="m284.41 215.83a.19.19 0 0 1 0 .08s0 .05 0 .12c-.19.56.31-.84-.22.66-.77 2.14-2.2 5.49-3.27 7.8 0 0 0 .21-.09.22 7.68 3.33 9.86 6 17.55 11.81a66.26 66.26 0 0 0 5.82 4 126 126 0 0 0 -4.41-15.18c-4.45-2.69-9.48-5.85-15.38-9.51z" fill="#ef9e67"/><path d="m284.41 215.83v.08a.19.19 0 0 0 0-.08z" fill="#ef9e67"/><path d="m382.92 223.44c0-.07-.28-.63-.3-.69-1.52-4.82-10.59-16.51-15.48-13-38.51 27.92-36.5 34.41-67.4 15.58 5 13.25 6.17 29.12 13.13 41.53 23.85 4.55 42.36-6.83 75-25.3 6.61-3.67-2.36-11.56-4.95-18.12z" fill="#e89256"/><path d="m378.64 215.91c-2.32-2.62-8.31-8.94-11.8-6.32-38 28.62-36.38 34.43-67.12 15.72a126 126 0 0 1 4.41 15.18c33.08 20.12 54.72-10.56 74.51-24.58z" fill="#ef9e67"/><path d="m397.47 231.46c1.38-3.87.56-6.62-1.84-8a10.14 10.14 0 0 0 -5.8-.73l-1.12.18a10.1 10.1 0 0 0 .67-2.1c.67-3.38.11-6-2.35-7.29-1.13-.61-4-.51-5.85 0a12.65 12.65 0 0 0 -.12-6.44c-1.2-2.5-4.85-4-8.85-2.11-12.37 5.95-11 18.66-11 18.66 0 3.81 1.92 8.47 5.57 12.42s8.14 6.28 11.94 6.55 14.37 1.16 18.75-11.14z" fill="#fff2e9"/><path d="m381.19 213.51s-4.44 7.9-11.09 10.28c0 0 11.17-9.5 10.32-17.7 0 0 2.5 1.47.77 7.42z" fill="#fcd2b6"/><path d="m388.76 222.82s-4.44 7.9-11.09 10.28c0 0 11.84-10 11-18.21 0 0 2.39 2.82.09 7.93z" fill="#fcd2b6"/><path d="m212.75 212c4.54 8.73 13.53 20.23 17.14 29.54-15.51 13.2-27.89 20.91-39.42 24.55 5.46-13.15 4.72-29 8.15-42.79 4.05-3.21 8.68-6.97 14.13-11.3z" fill="#e28749"/><path d="m212.74 212c0 .09 0 .11 0 .09v-.08z" fill="#e89256"/><path d="m217.39 220.37.17-.09c-.08.08-.13.1-.17.09z" fill="#e89256"/><path d="" fill="#e89256"/><path d="m212.72 212v.08l.06.11c.25.53-.41-.79.3.64 1 2 2.82 5.18 4.16 7.35 0 0 0 .21.11.21-7.23 4.21-9.09 7.08-16 13.8a67.66 67.66 0 0 1 -5.32 4.62 126.73 126.73 0 0 1 2.6-15.59c4.04-3.22 8.67-6.91 14.09-11.22z" fill="#e89256"/><path d="m212.72 212v.08z" fill="#e89256"/><path d="m115.8 231.14c0-.08.2-.66.21-.72.94-5 8.57-17.64 13.85-14.7 41.53 23.2 40.29 29.87 68.76 7.54-3.43 13.75-2.69 29.64-8.15 42.79-23.15 7.32-42.87-1.8-77.49-16.29-6.98-2.91 1.02-11.83 2.82-18.62z" fill="#e28749"/><path d="m119.15 223.16c2-2.88 7.21-9.86 11-7.67 41.11 23.95 40.18 29.91 68.51 7.71a126.73 126.73 0 0 0 -2.6 15.59c-30.49 23.88-55.6-4.04-76.91-15.63z" fill="#e89256"/><path d="m122.18 249.67c3.75-.72 7.93-3.55 11.09-7.91s4.56-9.21 4.08-13-.12-12.78-13.11-17.24c-4.2-1.44-7.64.52-8.54 3.15a12.63 12.63 0 0 0 .64 6.4c-1.9-.31-4.76-.07-5.81.67-2.29 1.61-2.54 4.24-1.47 7.52a9.82 9.82 0 0 0 .9 2h-1.13a10.17 10.17 0 0 0 -5.67 1.4c-2.22 1.67-2.71 4.5-.88 8.19 5.81 11.66 19.9 8.82 19.9 8.82z" fill="#fff2e9"/><path d="m116.34 221.07s5.34 7.33 12.22 8.91c0 0-12.2-8.13-12.33-16.37 0 0-2.3 1.76.11 7.46z" fill="#fcd2b6"/><path d="m109.92 231.21s5.34 7.32 12.23 8.9c0 0-13-8.55-13.07-16.79 0 0-2.08 3.09.84 7.89z" fill="#fcd2b6"/><path d="m247 345.32v4.76c-15-.61-29.43-4.51-37.93-10.66l-2.13-6.42c8.06 7.1 23.79 11.67 40.06 12.32z" fill="#d17537"/><path d="m295.49 332.76-2.13 6.49c-8.44 6.22-22.95 10.19-38 10.82 0-1.52 0-3.1 0-4.75 16.38-.69 32.17-5.32 40.13-12.56z" fill="#d17537"/><path d="m299.46 327.79a17.85 17.85 0 0 1 -4 5c-7.95 7.21-23.75 11.86-40.16 12.55-1.41.06-2.82.1-4.24.1s-2.71 0-4.06-.09c-11.28-.45-22.28-2.78-30.67-6.53-.39-.17-.79-.35-1.18-.54l-1.15-.57-1.27-.67-.91-.53c-.36-.2-.7-.42-1-.63l-1-.62c-.36-.25-.69-.48-1-.73s-.57-.43-.84-.64-.56-.46-.84-.7a.86.86 0 0 1 -.14-.19c-.21-.18-.41-.36-.6-.55l-.07-.06c-.23-.22-.46-.44-.68-.68a18.53 18.53 0 0 1 -1.74-2.07c-.09-.13-.19-.27-.27-.41a13.22 13.22 0 0 1 -.86-1.43c-9.51-18.3-6.25-41.85 0-61.84.26-.81.51-1.63.78-2.43a208.32 208.32 0 0 1 10.44-25.75c1.1-2.27 2.14-4.3 3.07-6.05.77-1.48 1.47-2.76 2-3.82.75.17 1.5.35 2.26.51 3.58.76 7.21 1.35 10.93 1.8a128.69 128.69 0 0 0 15.33.91h3.43a125.55 125.55 0 0 0 28.79-4.13c.79-.2 1.58-.41 2.36-.64.79 1.38 2 3.51 3.39 6.25q1.11 2.1 2.36 4.68a204.89 204.89 0 0 1 11.75 29.32c6.11 19.85 9.2 43.08-.21 61.18z" fill="#e89256"/><path d="m232.33 230.22s-3.36 5.11-5.3 8.55q-1.11 1.95-2.24 4.14c-.88 1.73-1.78 3.56-2.67 5.5a133.46 133.46 0 0 0 -12.05 50.84c-.48 13.54.41 22.56 1.65 28.51 1.81 8.65 4.39 10.83 4.62 11-.39-.17-.79-.35-1.18-.54l-1.15-.57-1.27-.67-.91-.53c-.36-.2-.7-.42-1-.63l-1-.62c-.36-.25-.69-.48-1-.73s-.57-.43-.84-.64-.56-.46-.84-.7a1.54 1.54 0 0 1 -.19-.17l-.6-.54-.07-.06c-.23-.22-.46-.44-.68-.68a18.53 18.53 0 0 1 -1.74-2.07c-.09-.13-.19-.27-.27-.41a13.22 13.22 0 0 1 -.86-1.43c-9.51-18.3-6.25-41.85 0-61.84.26-.81.51-1.63.78-2.43a208.32 208.32 0 0 1 10.48-25.72c1.1-2.27 2.14-4.3 3.07-6.05.77-1.48 1.47-2.76 2-3.82a18.13 18.13 0 0 0 2.2.39 88 88 0 0 1 11.06 1.92z" fill="#e28749"/><path d="m278.2 320.4a13.16 13.16 0 0 1 -2.2 3.6c-4.42 5.27-13.18 8.68-22.28 9.18-.78 0-1.57.06-2.35.06s-1.51 0-2.26 0c-9-.48-17.76-3.83-22.24-9a13.65 13.65 0 0 1 -2.34-3.8c-5.27-13.39-3.46-45.92 0-60.54a182.59 182.59 0 0 1 9.11-27.81 54.19 54.19 0 0 0 15.83 2.36h1.9a53.86 53.86 0 0 0 17.24-3.45c3.39 7.76 19.83 63.44 9.59 89.4z" fill="#fff2e9"/><ellipse cx="248.6" cy="228.82" opacity=".11" rx="41.66" ry="19.34"/><rect fill="#e89256" height="227.81" rx="63.73" width="134.21" x="179.94" y="9.11"/><path d="m265 124.34c-6.28-1.25-6.82-114.79-12-115.19-6.66-.51-1.2-.38-6.67-.39s-6.55.46-6.55.46c-5.71.59-5.49 113.55-10.79 116.35-22 11.63-46.24 27.8-46.24 54.25s19.21 58.09 64.34 58.09 64.4-33.86 64.4-60.23c-.05-24.97-27.91-49.68-46.49-53.34z" fill="#fceade" fill-rule="evenodd"/><path d="m286.14 220.19a31.11 31.11 0 0 1 -3.38 5c-6.91 8.25-18.56 12.4-36.78 6.87-12.44-3.79-22.28-11.81-29.7-21.45a80.49 80.49 0 0 1 -4.85-7c-16.28-26.38-17-59.24-6-53.26a14.35 14.35 0 0 1 3.35 2.69c.47.47.95 1 1.46 1.62.29.34.57.71.87 1.08 6.19 7.95 16.37 11.88 24.59 13.81a74 74 0 0 0 11 1.76.59.59 0 0 1 .19 0c1.12.08 1.75.1 1.75.1a36.2 36.2 0 0 0 12.08-1.31c5-1.35 8.74-3.18 12.76-2.87a13.77 13.77 0 0 1 7 2.71 16 16 0 0 1 1.36 1c.2.14.41.31.62.49.37.31.76.63 1.15 1 7.56 6.92 11.27 31.67 2.53 47.76z" fill="#822244"/><path d="m282.76 225.19c-6.91 8.25-18.56 12.4-36.78 6.87-12.44-3.79-22.28-11.81-29.7-21.45 30.42-17.2 56.65 4.53 66.48 14.58z" fill="#dd3c7e"/><path d="m217.4 37.72 2.53 6.13s-18.94-4-35.55 16.32c0 0 7.85-21.54 33.02-22.45z" fill="#491f14"/><path d="m274.66 37.72-2.53 6.13s18.94-4 35.55 16.32c0 0-7.85-21.54-33.02-22.45z" fill="#491f14"/><path d="m296.63 28.85s66.7 49.45 77.31 118.46-36.06 100.13-62 85.42-16.77-50.67-1.59-111.23c15.9-63.27-13.72-92.65-13.72-92.65z" fill="#823e2e"/><path d="m317.38 121.5c9.61-38.36 2.51-64.26-4.57-78.71a197.85 197.85 0 0 0 -16.18-13.94s29.62 29.38 13.76 92.65c-15.18 60.56-24.32 96.5 1.61 111.23a28.79 28.79 0 0 0 17.48 3.38 27.53 27.53 0 0 1 -10.48-3.38c-25.94-14.73-16.8-50.67-1.62-111.23z" fill="#6b3227" opacity=".65"/><g opacity=".46"><path d="m361.28 120.2a134.42 134.42 0 0 0 -6.38-25c8.9 15.45 16.11 33 19 52.06 10.6 69-36.06 100.13-62 85.42-10.72-6.09-15.44-15.83-16.21-29.43a34.11 34.11 0 0 0 3.56 2.32c25.98 14.76 72.64-16.36 62.03-85.37z" fill="#6b3126"/></g><g opacity=".33"><path d="m317.93 97.14v1.35a31.32 31.32 0 0 1 -60.58 9.73 30.87 30.87 0 0 1 -2-9.79c0-.16 0-.33 0-.49s0-.54 0-.8 0-.39 0-.58a29 29 0 0 1 .39-4.39c0-.26.08-.53.13-.79a.2.2 0 0 1 0-.07 31.32 31.32 0 0 1 29.53-25.47h1.25a31.33 31.33 0 0 1 31.28 31.3z" fill="#ce763a"/></g><path d="m323.39 91.49v.81s0 .36 0 .54a31.32 31.32 0 0 1 -62.59 0c0-.43 0-.87 0-1.3a31.32 31.32 0 0 1 62-6.31c0 .16.07.34.1.51s.1.56.14.84a28.89 28.89 0 0 1 .39 4.39c-.04.14-.04.33-.04.52z" fill="#fff"/><path d="m323.42 94.81a31.36 31.36 0 1 1 -62.71 0 29.83 29.83 0 0 1 .15-3 31.35 31.35 0 0 0 62.42 0 29.84 29.84 0 0 1 .14 3z" fill="#f2f2f2"/><path d="m279 127c-2.73 10.88-20.61 28.39-32.41 28.39s-30.59-15.39-33.19-26.9c-.76-3.26-.2-6.19 2.21-8.36 8.22-7.46 51.47-8.46 61.93 0 1.86 1.49 2.2 3.93 1.46 6.87z" fill="#823e2e" fill-rule="evenodd"/><path d="m279 127c-2.73 10.88-20.61 28.39-32.41 28.39s-30.59-15.39-33.19-26.9a7.48 7.48 0 0 1 2.21-3.48c8.22-7.47 51.47-8.47 61.93 0a4.71 4.71 0 0 1 1.46 1.99z" fill="#632b18" fill-rule="evenodd"/><path d="m197.37 28.85s-66.7 49.45-77.31 118.46 36.06 100.13 62 85.42 16.77-50.67 1.59-111.23c-15.9-63.27 13.72-92.65 13.72-92.65z" fill="#823e2e"/><path d="m176.62 121.5c-9.62-38.36-2.52-64.26 4.57-78.71a197.85 197.85 0 0 1 16.18-13.94s-29.62 29.38-13.76 92.65c15.18 60.56 24.31 96.5-1.61 111.23a28.81 28.81 0 0 1 -17.49 3.38 27.63 27.63 0 0 0 10.5-3.38c25.92-14.73 16.79-50.67 1.61-111.23z" fill="#6b3227" opacity=".65"/><g opacity=".46"><path d="m132.71 120.2a135.23 135.23 0 0 1 6.39-25c-8.9 15.45-16.11 33-19 52.06-10.6 69 36.06 100.13 62 85.42 10.72-6.09 15.44-15.83 16.21-29.43a35.19 35.19 0 0 1 -3.56 2.32c-25.98 14.76-72.64-16.36-62.04-85.37z" fill="#6b3126"/></g><g opacity=".33"><path d="m238.05 96.72v1.36a31.32 31.32 0 0 1 -62.62-.08c0-.16 0-.33 0-.49s0-.54 0-.81 0-.38 0-.57a30.23 30.23 0 0 1 .39-4.39c0-.26.08-.53.14-.79a.2.2 0 0 1 0-.07 31.3 31.3 0 0 1 29.52-25.47q.63 0 1.26 0a31.33 31.33 0 0 1 31.31 31.31z" fill="#ce763a"/></g><path d="m232.33 91.17v1.35a31.32 31.32 0 0 1 -60.58 9.74 30.92 30.92 0 0 1 -2-9.79c0-.16 0-.33 0-.49s0-.55 0-.81 0-.38 0-.58a30.21 30.21 0 0 1 .39-4.38c0-.27.08-.54.14-.79v-.08a31.35 31.35 0 0 1 29.53-25.47h1.25a31.33 31.33 0 0 1 31.27 31.3z" fill="#fff"/><path d="m169.65 94.49a31.36 31.36 0 0 0 62.71 0 29.69 29.69 0 0 0 -.15-3 31.35 31.35 0 0 1 -62.41 0 27 27 0 0 0 -.15 3z" fill="#f2f2f2"/><ellipse cx="263.57" cy="134.76" fill="#823e2e" rx="3.62" ry="5.03"/><ellipse cx="263.24" cy="134.76" fill="#4f2014" rx="3.3" ry="5.03"/><ellipse cx="228.14" cy="134.76" fill="#823e2e" rx="3.62" ry="5.03"/><ellipse cx="227.82" cy="134.76" fill="#4f2014" rx="3.3" ry="5.03"/><path d="m224 91.6s-17.11-17.46-36.9-9c0 0 15.28 0 25 6.23 0 0-15.91 1.45-20.22 11.46-.02.01 16.12-9.82 32.12-8.69z" fill="#663612"/><path d="m271.81 91.6s17.11-17.46 36.9-9c0 0-15.28 0-25 6.23 0 0 15.91 1.45 20.22 11.46-.01.01-16.13-9.82-32.12-8.69z" fill="#663612"/><path d="m109.34 450.98h274.65v28.13h-274.65z" fill="#f5bd98"/><path d="m109.34 371.25h274.65v67.44h-274.65z" fill="#f5bd98"/><ellipse cx="246.67" cy="479.11" fill="#f5bd98" rx="137.33" ry="24.14"/><ellipse cx="246.67" cy="450.98" fill="#f8f8f8" rx="137.33" ry="24.14"/><ellipse cx="246.67" cy="438.69" fill="#f5bd98" rx="137.33" ry="24.14"/><path d="m372.63 451.92c-16.55 0-2.72-34.7-20.84-34.7-13.88 0-12.41 37.42-28.89 37.42-14.86 0-18.72-32.83-27.67-32.83-22.37-2.24-10.6 56.68-37.19 56.68-32.52 0-8.49-73.11-49-73.11-15.63 0-23.51 16.43-25.75 27.62-2.24 8.95-13.42 13.43-22.37 6.71-6.44-6.43-2.91-18.64-11.73-25-9-6.49-21.7.13-22.4 11.2-.72 11.36 1.41 23.45-10.63 29.47a5.83 5.83 0 0 1 -5.06.05 3.73 3.73 0 0 1 -2.08-3.15v12a3.73 3.73 0 0 0 2.08 3.15 5.83 5.83 0 0 0 5.06 0c12-6 9.91-18.12 10.63-29.47.7-11.07 13.4-17.69 22.4-11.2 8.82 6.36 5.29 18.57 11.73 25 8.95 6.71 20.13 2.24 22.37-6.71 2.24-11.19 10.12-27.62 25.75-27.62 40.53 0 16.5 73.11 49 73.11 26.59 0 14.82-58.92 37.19-56.68 8.95 0 12.81 32.83 27.67 32.83 16.48 0 15-37.42 28.89-37.42 18.12 0 4.29 34.7 20.84 34.7 10.73 0 11.95-37.32 11.65-61.14-.28 22.58-2.61 49.09-11.65 49.09z" fill="#f4dbcb"/><path d="m246.25 363.23c-75.31 0-136.91 2-136.91 13.62v80.15a3.75 3.75 0 0 0 2.08 3.16 5.8 5.8 0 0 0 5.06-.06c12-6 9.91-18.11 10.63-29.47.7-11.06 13.41-17.68 22.4-11.2 8.82 6.36 5.29 18.58 11.73 25 8.95 6.71 20.13 2.24 22.37-6.71 2.24-11.19 10.12-27.62 25.75-27.62 40.53 0 16.5 73.11 49 73.11 26.59 0 14.82-58.92 37.19-56.68 8.95 0 12.81 32.82 27.67 32.82 16.48 0 15-37.41 28.89-37.41 18.13 0 4.29 34.69 20.84 34.69 15.75 0 11-80.48 11-80.48.05-11.58-62.39-12.92-137.7-12.92z" fill="#f9ede5"/><ellipse cx="246.67" cy="371.25" fill="#f9ede5" rx="137.33" ry="24.14"/><g fill="#fff"><path d="m379.32 374.72a3.15 3.15 0 0 0 .6-.08 5.34 5.34 0 0 0 1.31-.61 2.8 2.8 0 0 0 1.07-1.54 1.36 1.36 0 0 0 -.05-1 8.78 8.78 0 0 0 -.57-1.34c-2.37-4.49 2.63-7.66 5.28-3a6 6 0 0 1 .74 3.19 8 8 0 0 1 -.09.84 9.39 9.39 0 0 1 -.34 1.44 5.41 5.41 0 0 1 -1.41 2.22 4.72 4.72 0 0 1 -3.63 1.25 4.65 4.65 0 0 1 -2.91-1.37z"/><path d="m370.91 379.12a5.4 5.4 0 0 0 2.26-.07 6.14 6.14 0 0 0 4.1-3c1.2-2.05 2.42-2.45 3.9-2.08 1.33.32 2.95 1.71 1.62 4.66a6.81 6.81 0 0 1 -6.2 3.6 6.34 6.34 0 0 1 -5.68-3.11z"/><path d="m370.91 379.12a5.4 5.4 0 0 0 2.26-.07 6.14 6.14 0 0 0 4.1-3c1.2-2.05 2.42-2.45 3.9-2.08 1.33.32 2.95 1.71 1.62 4.66a6.81 6.81 0 0 1 -6.2 3.6 6.34 6.34 0 0 1 -5.68-3.11z"/><path d="m361.42 382.17a6.62 6.62 0 0 0 2.29.18 7.26 7.26 0 0 0 4.68-2.37c1.67-1.83 3.54-1.89 4.75-1s1.69 2.82-.12 4.93a6.85 6.85 0 0 1 -6.36 2.05 6.66 6.66 0 0 1 -5.24-3.79z"/><path d="m361.42 382.17a6.62 6.62 0 0 0 2.29.18 7.26 7.26 0 0 0 4.68-2.37c1.67-1.83 3.54-1.89 4.75-1s1.69 2.82-.12 4.93a6.85 6.85 0 0 1 -6.36 2.05 6.66 6.66 0 0 1 -5.24-3.79z"/><path d="m351.62 384.52a6.34 6.34 0 0 0 2.28.3 7.48 7.48 0 0 0 4.89-2c3.6-3.37 8.07.52 4.22 4.35-3.31 3.2-10.01 1.54-11.39-2.65z"/><path d="m351.62 384.52a6.34 6.34 0 0 0 2.28.3 7.48 7.48 0 0 0 4.89-2c3.6-3.37 8.07.52 4.22 4.35-3.31 3.2-10.01 1.54-11.39-2.65z"/><path d="m341.67 386.39a7.49 7.49 0 0 0 7.27-1.4c3.84-3.17 8 .95 4 4.58-3.47 3-10 1.07-11.27-3.18z"/><path d="m341.67 386.39a7.49 7.49 0 0 0 7.27-1.4c3.84-3.17 8 .95 4 4.58-3.47 3-10 1.07-11.27-3.18z"/><path d="m331.65 387.93a7.55 7.55 0 0 0 7.32-1.15c4-3.07 8 1.3 3.8 4.71-3.54 2.88-9.98.72-11.12-3.56z"/><path d="m331.65 387.93a7.55 7.55 0 0 0 7.32-1.15c4-3.07 8 1.3 3.8 4.71-3.54 2.88-9.98.72-11.12-3.56z"/><path d="m321.57 389.22a7.63 7.63 0 0 0 7.37-1c4.07-2.95 7.94 1.55 3.66 4.83-3.6 2.78-9.98.47-11.03-3.83z"/><path d="m321.57 389.22a7.63 7.63 0 0 0 7.37-1c4.07-2.95 7.94 1.55 3.66 4.83-3.6 2.78-9.98.47-11.03-3.83z"/><path d="m311.46 390.28a7.65 7.65 0 0 0 7.39-.82c4.15-2.85 7.91 1.73 3.55 4.91-3.67 2.63-9.97.22-10.94-4.09z"/><path d="m311.46 390.28a7.65 7.65 0 0 0 7.39-.82c4.15-2.85 7.91 1.73 3.55 4.91-3.67 2.63-9.97.22-10.94-4.09z"/><path d="m301.33 391.14a7.57 7.57 0 0 0 7.4-.68c4.22-2.75 7.87 1.87 3.45 5-3.71 2.54-9.96.01-10.85-4.32z"/><path d="m301.33 391.14a7.57 7.57 0 0 0 7.4-.68c4.22-2.75 7.87 1.87 3.45 5-3.71 2.54-9.96.01-10.85-4.32z"/><path d="m291.18 391.83a7.65 7.65 0 0 0 7.42-.55c4.26-2.7 7.83 2 3.36 5-3.76 2.56-9.96-.1-10.78-4.45z"/><path d="m291.18 391.83a7.65 7.65 0 0 0 7.42-.55c4.26-2.7 7.83 2 3.36 5-3.76 2.56-9.96-.1-10.78-4.45z"/><path d="m281 392.38a7.71 7.71 0 0 0 7.43-.45c4.31-2.64 7.8 2.17 3.27 5.1-3.77 2.46-9.92-.31-10.7-4.65z"/><path d="m281 392.38a7.71 7.71 0 0 0 7.43-.45c4.31-2.64 7.8 2.17 3.27 5.1-3.77 2.46-9.92-.31-10.7-4.65z"/><path d="m270.85 392.76a7.64 7.64 0 0 0 7.43-.34c4.35-2.54 7.77 2.26 3.2 5.15-3.83 2.43-9.94-.43-10.63-4.81z"/><path d="m270.85 392.76a7.64 7.64 0 0 0 7.43-.34c4.35-2.54 7.77 2.26 3.2 5.15-3.83 2.43-9.94-.43-10.63-4.81z"/><path d="m260.67 393a7.73 7.73 0 0 0 7.44-.24c4.39-2.51 7.74 2.39 3.13 5.18-3.86 2.38-9.93-.56-10.57-4.94z"/><path d="m260.67 393a7.73 7.73 0 0 0 7.44-.24c4.39-2.51 7.74 2.39 3.13 5.18-3.86 2.38-9.93-.56-10.57-4.94z"/><path d="m250.49 393.12a7.63 7.63 0 0 0 7.44-.13c4.43-2.43 7.71 2.47 3.06 5.24-3.89 2.27-9.92-.71-10.5-5.11z"/><path d="m250.49 393.12a7.63 7.63 0 0 0 7.44-.13c4.43-2.43 7.71 2.47 3.06 5.24-3.89 2.27-9.92-.71-10.5-5.11z"/><path d="m240.31 393.11a7.69 7.69 0 0 0 7.44 0c4.46-2.39 7.67 2.59 3 5.27-3.93 2.21-9.92-.89-10.44-5.27z"/><path d="m240.31 393.11a7.69 7.69 0 0 0 7.44 0c4.46-2.39 7.67 2.59 3 5.27-3.93 2.21-9.92-.89-10.44-5.27z"/><path d="m230.13 393a7.67 7.67 0 0 0 7.44.06c4.49-2.32 7.64 2.67 2.92 5.31-3.94 2.14-9.89-1-10.36-5.37z"/><path d="m230.13 393a7.67 7.67 0 0 0 7.44.06c4.49-2.32 7.64 2.67 2.92 5.31-3.94 2.14-9.89-1-10.36-5.37z"/><path d="m220 392.68a7.68 7.68 0 0 0 7.44.15c4.52-2.27 7.6 2.8 2.86 5.35-4.03 2.14-9.94-1.11-10.3-5.5z"/><path d="m220 392.68a7.68 7.68 0 0 0 7.44.15c4.52-2.27 7.6 2.8 2.86 5.35-4.03 2.14-9.94-1.11-10.3-5.5z"/><path d="m209.78 392.25a7.64 7.64 0 0 0 7.44.26c4.54-2.2 7.56 2.88 2.78 5.39-4 2.1-9.87-1.23-10.22-5.65z"/><path d="m209.78 392.25a7.64 7.64 0 0 0 7.44.26c4.54-2.2 7.56 2.88 2.78 5.39-4 2.1-9.87-1.23-10.22-5.65z"/><path d="m199.62 391.68a7.69 7.69 0 0 0 7.43.37c4.58-2.15 7.52 3 2.71 5.42-4.04 2.03-9.86-1.39-10.14-5.79z"/><path d="m199.62 391.68a7.69 7.69 0 0 0 7.43.37c4.58-2.15 7.52 3 2.71 5.42-4.04 2.03-9.86-1.39-10.14-5.79z"/><path d="m189.48 390.94a7.59 7.59 0 0 0 7.42.49c4.6-2.05 7.47 3.09 2.62 5.47-4.07 1.96-9.84-1.53-10.04-5.96z"/><path d="m189.48 390.94a7.59 7.59 0 0 0 7.42.49c4.6-2.05 7.47 3.09 2.62 5.47-4.07 1.96-9.84-1.53-10.04-5.96z"/><path d="m179.35 390a7.64 7.64 0 0 0 7.41.62c4.63-2 7.42 3.23 2.52 5.51-4.1 1.93-9.81-1.68-9.93-6.13z"/><path d="m179.35 390a7.64 7.64 0 0 0 7.41.62c4.63-2 7.42 3.23 2.52 5.51-4.1 1.93-9.81-1.68-9.93-6.13z"/><path d="m169.25 388.92a7.64 7.64 0 0 0 7.39.77c4.66-1.91 7.36 3.38 2.42 5.55-4.14 1.83-9.79-1.89-9.81-6.32z"/><path d="m169.25 388.92a7.64 7.64 0 0 0 7.39.77c4.66-1.91 7.36 3.38 2.42 5.55-4.14 1.83-9.79-1.89-9.81-6.32z"/><path d="m159.18 387.58a7.6 7.6 0 0 0 7.37.94c4.69-1.79 7.28 3.51 2.3 5.61-4.19 1.73-9.76-2.13-9.67-6.55z"/><path d="m159.18 387.58a7.6 7.6 0 0 0 7.37.94c4.69-1.79 7.28 3.51 2.3 5.61-4.19 1.73-9.76-2.13-9.67-6.55z"/><path d="m149.17 386a7.54 7.54 0 0 0 7.33 1.15c4.72-1.66 7.19 3.68 2.15 5.67-4.23 1.58-9.72-2.43-9.48-6.82z"/><path d="m149.17 386a7.54 7.54 0 0 0 7.33 1.15c4.72-1.66 7.19 3.68 2.15 5.67-4.23 1.58-9.72-2.43-9.48-6.82z"/><path d="m139.26 384a6.53 6.53 0 0 0 1.94 1.23 7.74 7.74 0 0 0 5.31.19c4.76-1.51 7.07 3.91 2 5.74-4.33 1.47-9.71-2.76-9.25-7.16z"/><path d="m139.26 384a6.53 6.53 0 0 0 1.94 1.23 7.74 7.74 0 0 0 5.31.19c4.76-1.51 7.07 3.91 2 5.74-4.33 1.47-9.71-2.76-9.25-7.16z"/><path d="m129.5 381.5a6.2 6.2 0 0 0 1.86 1.33 7.49 7.49 0 0 0 5.27.48c4.8-1.33 6.89 4.22 1.71 5.81-4.34 1.35-9.6-3.25-8.84-7.62z"/><path d="m129.5 381.5a6.2 6.2 0 0 0 1.86 1.33 7.49 7.49 0 0 0 5.27.48c4.8-1.33 6.89 4.22 1.71 5.81-4.34 1.35-9.6-3.25-8.84-7.62z"/><path d="m120.15 378.2a5.3 5.3 0 0 0 1.66 1.52 7 7 0 0 0 5.14.93c4.8-1 6.62 4.6 1.31 5.93a7 7 0 0 1 -6.26-2.18 6.43 6.43 0 0 1 -1.85-6.2z"/><path d="m120.15 378.2a5.3 5.3 0 0 0 1.66 1.52 7 7 0 0 0 5.14.93c4.8-1 6.62 4.6 1.31 5.93a7 7 0 0 1 -6.26-2.18 6.43 6.43 0 0 1 -1.85-6.2z"/><path d="m112.52 373.3a3.13 3.13 0 0 0 .74 1.83 5.46 5.46 0 0 0 4.57 1.89c2.39-.1 3.76 1.15 4 2.62s-.76 3.18-3.56 3.43a6.89 6.89 0 0 1 -6.12-3.39c-1.39-2.23-1.29-4.89.37-6.38z"/><path d="m112.52 373.3a3.13 3.13 0 0 0 .74 1.83 5.46 5.46 0 0 0 4.57 1.89c2.39-.1 3.76 1.15 4 2.62s-.76 3.18-3.56 3.43a6.89 6.89 0 0 1 -6.12-3.39c-1.39-2.23-1.29-4.89.37-6.38z"/><path d="m114 367.77a4.16 4.16 0 0 0 -.6.09 5 5 0 0 0 -1.31.61 2.76 2.76 0 0 0 -1.09 1.53 1.53 1.53 0 0 0 .71 1.76 3.28 3.28 0 0 1 .84.56 1.42 1.42 0 0 1 .52.73 3 3 0 0 1 .22 2c-.27 1.32-1.6 3-4.66 1.78a6.74 6.74 0 0 1 -1.75-1.46 6.14 6.14 0 0 1 -1.08-2.57 9.89 9.89 0 0 1 -.11-1.52 10.14 10.14 0 0 1 .34-1.47 5.35 5.35 0 0 1 1.42-2.21 4.64 4.64 0 0 1 6.53.15z"/><path d="m114 367.77a4.16 4.16 0 0 0 -.6.09 5 5 0 0 0 -1.31.61 2.76 2.76 0 0 0 -1.09 1.53 1.53 1.53 0 0 0 .71 1.76 3.28 3.28 0 0 1 .84.56 1.42 1.42 0 0 1 .52.73 3 3 0 0 1 .22 2c-.27 1.32-1.6 3-4.66 1.78a6.74 6.74 0 0 1 -1.75-1.46 6.14 6.14 0 0 1 -1.08-2.57 9.89 9.89 0 0 1 -.11-1.52 10.14 10.14 0 0 1 .34-1.47 5.35 5.35 0 0 1 1.42-2.21 4.64 4.64 0 0 1 6.53.15z"/><path d="m122.42 363.37a5.52 5.52 0 0 0 -2.26.08 6.1 6.1 0 0 0 -4.09 3c-1.21 2-2.43 2.44-3.9 2.08s-3-1.71-1.63-4.67a6.85 6.85 0 0 1 6.2-3.6 6.38 6.38 0 0 1 5.68 3.11z"/><path d="m122.42 363.37a5.52 5.52 0 0 0 -2.26.08 6.1 6.1 0 0 0 -4.09 3c-1.21 2-2.43 2.44-3.9 2.08s-3-1.71-1.63-4.67a6.85 6.85 0 0 1 6.2-3.6 6.38 6.38 0 0 1 5.68 3.11z"/><path d="m131.91 360.32a6.62 6.62 0 0 0 -2.29-.18 7.32 7.32 0 0 0 -4.68 2.38c-1.67 1.82-3.54 1.88-4.74 1s-1.7-2.82.11-4.93a6.82 6.82 0 0 1 6.36-2.05 6.65 6.65 0 0 1 5.24 3.78z"/><path d="m131.91 360.32a6.62 6.62 0 0 0 -2.29-.18 7.32 7.32 0 0 0 -4.68 2.38c-1.67 1.82-3.54 1.88-4.74 1s-1.7-2.82.11-4.93a6.82 6.82 0 0 1 6.36-2.05 6.65 6.65 0 0 1 5.24 3.78z"/><path d="m141.71 358a6.28 6.28 0 0 0 -2.28-.3 7.52 7.52 0 0 0 -4.89 2c-3.6 3.38-8.07-.52-4.22-4.35 3.31-3.23 9.98-1.57 11.39 2.65z"/><path d="m141.71 358a6.28 6.28 0 0 0 -2.28-.3 7.52 7.52 0 0 0 -4.89 2c-3.6 3.38-8.07-.52-4.22-4.35 3.31-3.23 9.98-1.57 11.39 2.65z"/><path d="m151.66 356.11a7.5 7.5 0 0 0 -7.27 1.39c-3.84 3.18-8-.95-4-4.58 3.47-2.99 10.01-1.07 11.27 3.19z"/><path d="m151.66 356.11a7.5 7.5 0 0 0 -7.27 1.39c-3.84 3.18-8-.95-4-4.58 3.47-2.99 10.01-1.07 11.27 3.19z"/><path d="m161.68 354.56a7.56 7.56 0 0 0 -7.32 1.16c-4 3.06-8-1.3-3.8-4.72 3.54-2.87 9.98-.71 11.12 3.56z"/><path d="m161.68 354.56a7.56 7.56 0 0 0 -7.32 1.16c-4 3.06-8-1.3-3.8-4.72 3.54-2.87 9.98-.71 11.12 3.56z"/><path d="m171.76 353.28a7.63 7.63 0 0 0 -7.36 1c-4.08 3-8-1.54-3.66-4.82 3.61-2.79 9.97-.46 11.02 3.82z"/><path d="m171.76 353.28a7.63 7.63 0 0 0 -7.36 1c-4.08 3-8-1.54-3.66-4.82 3.61-2.79 9.97-.46 11.02 3.82z"/><path d="m181.87 352.22a7.65 7.65 0 0 0 -7.39.82c-4.15 2.85-7.91-1.73-3.55-4.91 3.67-2.67 9.97-.22 10.94 4.09z"/><path d="m181.87 352.22a7.65 7.65 0 0 0 -7.39.82c-4.15 2.85-7.91-1.73-3.55-4.91 3.67-2.67 9.97-.22 10.94 4.09z"/><path d="m192 351.36a7.57 7.57 0 0 0 -7.4.68c-4.22 2.75-7.87-1.87-3.45-5 3.71-2.57 9.96-.04 10.85 4.32z"/><path d="m192 351.36a7.57 7.57 0 0 0 -7.4.68c-4.22 2.75-7.87-1.87-3.45-5 3.71-2.57 9.96-.04 10.85 4.32z"/><path d="m202.15 350.66a7.64 7.64 0 0 0 -7.42.56c-4.26 2.69-7.83-2-3.36-5.05 3.76-2.51 9.96.14 10.78 4.49z"/><path d="m202.15 350.66a7.64 7.64 0 0 0 -7.42.56c-4.26 2.69-7.83-2-3.36-5.05 3.76-2.51 9.96.14 10.78 4.49z"/><path d="m212.31 350.12a7.66 7.66 0 0 0 -7.42.45c-4.32 2.63-7.81-2.17-3.28-5.1 3.79-2.47 9.95.31 10.7 4.65z"/><path d="m212.31 350.12a7.66 7.66 0 0 0 -7.42.45c-4.32 2.63-7.81-2.17-3.28-5.1 3.79-2.47 9.95.31 10.7 4.65z"/><path d="m222.49 349.74a7.64 7.64 0 0 0 -7.44.33c-4.35 2.55-7.77-2.25-3.2-5.15 3.83-2.38 9.94.44 10.64 4.82z"/><path d="m222.49 349.74a7.64 7.64 0 0 0 -7.44.33c-4.35 2.55-7.77-2.25-3.2-5.15 3.83-2.38 9.94.44 10.64 4.82z"/><path d="m232.66 349.48a7.7 7.7 0 0 0 -7.44.24c-4.39 2.51-7.73-2.39-3.13-5.19 3.91-2.35 9.91.59 10.57 4.95z"/><path d="m232.66 349.48a7.7 7.7 0 0 0 -7.44.24c-4.39 2.51-7.73-2.39-3.13-5.19 3.91-2.35 9.91.59 10.57 4.95z"/><path d="m242.84 349.37a7.65 7.65 0 0 0 -7.44.14c-4.42 2.42-7.7-2.47-3.06-5.24 3.89-2.27 9.92.73 10.5 5.1z"/><path d="m242.84 349.37a7.65 7.65 0 0 0 -7.44.14c-4.42 2.42-7.7-2.47-3.06-5.24 3.89-2.27 9.92.73 10.5 5.1z"/><path d="m253 349.38a7.68 7.68 0 0 0 -7.44.05c-4.46 2.39-7.67-2.6-3-5.27 3.95-2.25 9.94.84 10.44 5.22z"/><path d="m253 349.38a7.68 7.68 0 0 0 -7.44.05c-4.46 2.39-7.67-2.6-3-5.27 3.95-2.25 9.94.84 10.44 5.22z"/><path d="m263.2 349.54a7.64 7.64 0 0 0 -7.44-.06c-4.49 2.32-7.64-2.67-2.92-5.31 3.95-2.17 9.9.96 10.36 5.37z"/><path d="m263.2 349.54a7.64 7.64 0 0 0 -7.44-.06c-4.49 2.32-7.64-2.67-2.92-5.31 3.95-2.17 9.9.96 10.36 5.37z"/><path d="m273.38 349.82a7.66 7.66 0 0 0 -7.44-.16c-4.52 2.28-7.6-2.8-2.85-5.34 3.97-2.14 9.91 1.1 10.29 5.5z"/><path d="m273.38 349.82a7.66 7.66 0 0 0 -7.44-.16c-4.52 2.28-7.6-2.8-2.85-5.34 3.97-2.14 9.91 1.1 10.29 5.5z"/><path d="m283.55 350.25a7.64 7.64 0 0 0 -7.44-.26c-4.54 2.19-7.56-2.88-2.78-5.39 4.01-2.08 9.87 1.23 10.22 5.65z"/><path d="m283.55 350.25a7.64 7.64 0 0 0 -7.44-.26c-4.54 2.19-7.56-2.88-2.78-5.39 4.01-2.08 9.87 1.23 10.22 5.65z"/><path d="m293.71 350.81a7.68 7.68 0 0 0 -7.43-.36c-4.58 2.15-7.52-3-2.7-5.42 4.03-2.03 9.85 1.38 10.13 5.78z"/><path d="m293.71 350.81a7.68 7.68 0 0 0 -7.43-.36c-4.58 2.15-7.52-3-2.7-5.42 4.03-2.03 9.85 1.38 10.13 5.78z"/><path d="m303.86 351.56a7.61 7.61 0 0 0 -7.43-.49c-4.6 2.05-7.47-3.09-2.61-5.47 4.06-1.96 9.83 1.53 10.04 5.96z"/><path d="m303.86 351.56a7.61 7.61 0 0 0 -7.43-.49c-4.6 2.05-7.47-3.09-2.61-5.47 4.06-1.96 9.83 1.53 10.04 5.96z"/><path d="m314 352.47a7.64 7.64 0 0 0 -7.41-.62c-4.63 2-7.42-3.24-2.52-5.51 4.08-1.9 9.8 1.66 9.93 6.13z"/><path d="m314 352.47a7.64 7.64 0 0 0 -7.41-.62c-4.63 2-7.42-3.24-2.52-5.51 4.08-1.9 9.8 1.66 9.93 6.13z"/><path d="m324.09 353.58a7.66 7.66 0 0 0 -7.4-.77c-4.66 1.91-7.35-3.38-2.42-5.55 4.14-1.83 9.79 1.89 9.82 6.32z"/><path d="m324.09 353.58a7.66 7.66 0 0 0 -7.4-.77c-4.66 1.91-7.35-3.38-2.42-5.55 4.14-1.83 9.79 1.89 9.82 6.32z"/><path d="m334.15 354.91a7.6 7.6 0 0 0 -7.36-.93c-4.7 1.79-7.29-3.51-2.31-5.61 4.19-1.73 9.77 2.12 9.67 6.54z"/><path d="m334.15 354.91a7.6 7.6 0 0 0 -7.36-.93c-4.7 1.79-7.29-3.51-2.31-5.61 4.19-1.73 9.77 2.12 9.67 6.54z"/><path d="m344.16 356.54a7.53 7.53 0 0 0 -7.32-1.15c-4.73 1.66-7.2-3.68-2.16-5.67 4.23-1.62 9.72 2.39 9.48 6.82z"/><path d="m344.16 356.54a7.53 7.53 0 0 0 -7.32-1.15c-4.73 1.66-7.2-3.68-2.16-5.67 4.23-1.62 9.72 2.39 9.48 6.82z"/><path d="m354.08 358.52a6.45 6.45 0 0 0 -1.95-1.23 7.73 7.73 0 0 0 -5.31-.2c-4.76 1.52-7.07-3.9-2-5.73 4.33-1.5 9.71 2.74 9.26 7.16z"/><path d="m354.08 358.52a6.45 6.45 0 0 0 -1.95-1.23 7.73 7.73 0 0 0 -5.31-.2c-4.76 1.52-7.07-3.9-2-5.73 4.33-1.5 9.71 2.74 9.26 7.16z"/><path d="m363.83 361a6.28 6.28 0 0 0 -1.86-1.32 7.43 7.43 0 0 0 -5.27-.48c-4.79 1.32-6.89-4.23-1.71-5.81 4.39-1.39 9.6 3.24 8.84 7.61z"/><path d="m363.83 361a6.28 6.28 0 0 0 -1.86-1.32 7.43 7.43 0 0 0 -5.27-.48c-4.79 1.32-6.89-4.23-1.71-5.81 4.39-1.39 9.6 3.24 8.84 7.61z"/><path d="m373.18 364.3a5.17 5.17 0 0 0 -1.66-1.52 7 7 0 0 0 -5.14-.94c-4.79 1-6.62-4.6-1.31-5.92a7 7 0 0 1 6.29 2.18 6.41 6.41 0 0 1 1.82 6.2z"/><path d="m373.18 364.3a5.17 5.17 0 0 0 -1.66-1.52 7 7 0 0 0 -5.14-.94c-4.79 1-6.62-4.6-1.31-5.92a7 7 0 0 1 6.29 2.18 6.41 6.41 0 0 1 1.82 6.2z"/><path d="m380.81 369.19a3 3 0 0 0 -.74-1.83 5.49 5.49 0 0 0 -4.57-1.89c-2.39.11-3.76-1.14-4-2.61s.76-3.18 3.56-3.43a6.89 6.89 0 0 1 6.12 3.39c1.39 2.18 1.3 4.89-.37 6.37z"/><path d="m380.81 369.19a3 3 0 0 0 -.74-1.83 5.49 5.49 0 0 0 -4.57-1.89c-2.39.11-3.76-1.14-4-2.61s.76-3.18 3.56-3.43a6.89 6.89 0 0 1 6.12 3.39c1.39 2.18 1.3 4.89-.37 6.37z"/><path d="m381.75 377.63a6.91 6.91 0 0 0 .77-2.19 7.59 7.59 0 0 0 .08-2.37c-.09-.83-.38-2.13-1-2.34a3.28 3.28 0 0 1 -.84-.56 1.38 1.38 0 0 1 -.51-.73 3 3 0 0 1 -.23-2c.27-1.32 1.6-3 4.66-1.78a6.74 6.74 0 0 1 1.75 1.46 6.08 6.08 0 0 1 1.08 2.57 9.81 9.81 0 0 1 .11 1.52 6.72 6.72 0 0 1 -.17.85 9.1 9.1 0 0 1 -.61 1.6 7 7 0 0 1 -5.09 3.97z"/></g><path d="m115.09 334.93c17.19-17.69 36.4 15.16 52.07 0s-26.29-33.37-7.08-52.07 35.89 27.3 49 43.73 34.92 14.41 33.92-23c0 0 3.54-19.21 18.2 2.52s19.21 13.65 30.33-4.55 25.27-19.2 26.29-5.05 3 29.32 31.84 7.08c23.64-18.25 26.86 9.09 5.21 27-7.49 6.21-1.52 18.26 8 16.15l1-.23c32.85-7.58 33.66 16.14 10.4 26.75-77.11 25-166.21 19.23-247.61 5.12-.07.04-28.75-25.76-11.57-43.45z" fill="#f9ede5"/><path d="m324.77 338.93s6.77 9.2 2.51 18.45-13 4.29-13 4.29" fill="#fb0048"/><path d="m324.87 339s-11.39.85-15.65 10.1 5.18 12.65 5.18 12.65" fill="#fb0048"/><path d="m311 353.58s-6.2-7.12-9.35-.28c-3.93 8.54 23.55 21.18 27.54 11.73 2.09-5-4.76-7.41-7.26-5.71.07 0-2.69-9.32-10.93-5.74z" fill="#f8f8f8"/><path d="m153 333.51s7.19 10.19 2.33 20.2-14.27 4.4-14.27 4.4" fill="#fb0048"/><path d="m153.1 333.56s-12.45.66-17.31 10.67 5.38 13.93 5.38 13.93" fill="#fb0048"/><path d="m137.25 350.35s-6.61-7.91-10.21-.51c-4.48 9.23 25.23 23.65 29.81 13.42 2.4-5.36-5-8.19-7.8-6.4 0 0-2.77-10.22-11.8-6.51z" fill="#f8f8f8"/><path d="m200.47 349.76s12.21 3.68 14.61 14.79-8.7 12.54-8.7 12.54" fill="#fb0048"/><path d="m200.58 349.74s-9.6 8.39-7.2 19.5 13.11 7.82 13.11 7.82" fill="#fb0048"/><path d="m198 372.05s-10.31-2.2-8.53 6c2.22 10.26 35.22 3.12 32.45-8-1.45-5.83-9.22-3.41-10.31-.23.03.02-8.61-6.46-13.61 2.23z" fill="#f8f8f8"/></svg>